<svg width="50" height="51" viewBox="0 0 50 51" fill="none" xmlns="http://www.w3.org/2000/svg">
<g clip-path="url(#clip0)">
<path d="M34.3748 0.492676H15.6248C6.99663 0.492676 -0.000244141 7.48955 -0.000244141 16.1177V34.8677C-0.000244141 43.4958 6.99663 50.4927 15.6248 50.4927H34.3748C43.0029 50.4927 49.9998 43.4958 49.9998 34.8677V16.1177C49.9998 7.48955 43.0029 0.492676 34.3748 0.492676ZM45.3123 34.8677C45.3123 40.8989 40.406 45.8052 34.3748 45.8052H15.6248C9.59351 45.8052 4.68726 40.8989 4.68726 34.8677V16.1177C4.68726 10.0864 9.59351 5.18018 15.6248 5.18018H34.3748C40.406 5.18018 45.3123 10.0864 45.3123 16.1177V34.8677Z" fill="url(#paint0_linear)"/>
<path d="M24.9998 12.9927C18.0966 12.9927 12.4998 18.5896 12.4998 25.4927C12.4998 32.3958 18.0966 37.9927 24.9998 37.9927C31.9029 37.9927 37.4998 32.3958 37.4998 25.4927C37.4998 18.5896 31.9029 12.9927 24.9998 12.9927ZM24.9998 33.3052C20.6935 33.3052 17.1873 29.7989 17.1873 25.4927C17.1873 21.1833 20.6935 17.6802 24.9998 17.6802C29.306 17.6802 32.8123 21.1833 32.8123 25.4927C32.8123 29.7989 29.306 33.3052 24.9998 33.3052Z" fill="url(#paint1_linear)"/>
<path d="M38.4372 13.7204C39.3571 13.7204 40.1029 12.9747 40.1029 12.0548C40.1029 11.1349 39.3571 10.3892 38.4372 10.3892C37.5173 10.3892 36.7716 11.1349 36.7716 12.0548C36.7716 12.9747 37.5173 13.7204 38.4372 13.7204Z" fill="url(#paint2_linear)"/>
</g>
<defs>
<linearGradient id="paint0_linear" x1="4.57678" y1="45.916" x2="45.4227" y2="5.06939" gradientUnits="userSpaceOnUse">
<stop stop-color="#FFC107"/>
<stop offset="0.507" stop-color="#F44336"/>
<stop offset="0.99" stop-color="#9C27B0"/>
</linearGradient>
<linearGradient id="paint1_linear" x1="16.1612" y1="34.3313" x2="33.8383" y2="16.6541" gradientUnits="userSpaceOnUse">
<stop stop-color="#FFC107"/>
<stop offset="0.507" stop-color="#F44336"/>
<stop offset="0.99" stop-color="#9C27B0"/>
</linearGradient>
<linearGradient id="paint2_linear" x1="37.2596" y1="13.2327" x2="39.6149" y2="10.8771" gradientUnits="userSpaceOnUse">
<stop stop-color="#FFC107"/>
<stop offset="0.507" stop-color="#F44336"/>
<stop offset="0.99" stop-color="#9C27B0"/>
</linearGradient>
<clipPath id="clip0">
<rect width="50" height="50" fill="white" transform="translate(-0.000244141 0.492676)"/>
</clipPath>
</defs>
</svg>
