<svg width="64" height="63" viewBox="0 0 64 63" fill="none" xmlns="http://www.w3.org/2000/svg">
<g clip-path="url(#clip0)">
<path opacity="0.5" d="M28.9333 62.1034L1.62329 46.3334C-0.0567107 45.3634 0.153289 43.6734 2.09329 42.5634L28.4633 27.3434C30.4033 26.2234 33.3233 26.1034 35.0033 27.0734L62.3133 42.8434C63.9933 43.8134 63.7833 45.5034 61.8433 46.6234L35.4733 61.8334C33.5333 62.9534 30.6033 63.0734 28.9333 62.1034Z" fill="#173D7A"/>
<path d="M63.4333 27.7134V18.2934L42.3033 18.2834L35.0033 14.0634C33.3233 13.0934 30.4033 13.2134 28.4633 14.3334L21.6533 18.2634H0.503303V27.9534C0.453303 28.6034 0.823302 29.2434 1.6233 29.7034L28.9333 45.4734C30.6133 46.4434 33.5333 46.3234 35.4733 45.2034L61.8433 29.9834C62.9533 29.3234 63.4933 28.4934 63.4333 27.7134Z" fill="#396CAA"/>
<path d="M31.9633 13.4134C30.7333 13.4434 29.4633 13.7534 28.4633 14.3334L21.6533 18.2634H0.503303V27.9534C0.453303 28.6034 0.823302 29.2434 1.6233 29.7034L28.9333 45.4734C29.7433 45.9434 30.8333 46.1534 31.9633 46.1234V13.4134Z" fill="#396CAA"/>
<path d="M2.8933 18.2634H0.503303V27.9534C0.453303 28.6034 0.823302 29.2434 1.6233 29.7034L2.8933 30.4334V18.2634Z" fill="#5793CE"/>
<path d="M29.3533 45.6734C30.8033 46.2934 32.8933 46.2534 34.5833 45.6134V34.6134H29.3533V45.6734Z" fill="#5793CE"/>
<path d="M28.9333 35.8134L1.62329 20.0434C-0.0567107 19.0734 0.153289 17.3834 2.09329 16.2734L28.4633 1.04338C30.4033 -0.0766176 33.3233 -0.196618 35.0033 0.773382L62.3133 16.5434C63.9933 17.5134 63.7833 19.2034 61.8433 20.3134L35.4733 35.5434C33.5333 36.6534 30.6033 36.7834 28.9333 35.8134Z" fill="#D4ECFF"/>
<path d="M61.8333 18.4634L35.4733 33.6834C33.5333 34.8034 30.6133 34.9234 28.9333 33.9534L1.62331 18.1934C1.25331 17.9734 0.973314 17.7234 0.783314 17.4534C0.203314 18.3834 0.473314 19.3834 1.62331 20.0534L28.9333 35.8234C30.6133 36.7934 33.5333 36.6734 35.4733 35.5534L61.8433 20.3334C63.3433 19.4634 63.8033 18.2534 63.1533 17.3034C62.8833 17.7034 62.4433 18.1134 61.8333 18.4634Z" fill="white"/>
<path d="M53.3833 30.2034C53.3833 30.9034 52.8933 31.7634 52.2833 32.1134C51.6733 32.4634 51.1833 32.1834 51.1833 31.4734C51.1833 30.7734 51.6733 29.9134 52.2833 29.5634C52.8933 29.2134 53.3833 29.5034 53.3833 30.2034Z" fill="#D4ECFF"/>
<path d="M56.9333 28.1534C56.9333 28.8534 56.4433 29.7134 55.8333 30.0634C55.2233 30.4134 54.7333 30.1334 54.7333 29.4234C54.7333 28.7234 55.2233 27.8634 55.8333 27.5134C56.4433 27.1634 56.9333 27.4534 56.9333 28.1534Z" fill="#D4ECFF"/>
<path d="M60.4833 26.1034C60.4833 26.8034 59.9933 27.6634 59.3833 28.0134C58.7733 28.3634 58.2833 28.0834 58.2833 27.3734C58.2833 26.6734 58.7733 25.8134 59.3833 25.4634C59.9933 25.1134 60.4833 25.4034 60.4833 26.1034Z" fill="#D4ECFF"/>
<path d="M30.5433 26.0334L17.7633 18.6534C16.9833 18.2034 17.0733 17.4134 17.9833 16.8834L30.3233 9.76338C31.2333 9.24338 32.6033 9.18338 33.3833 9.63338L46.1633 17.0134C46.9433 17.4634 46.8533 18.2534 45.9433 18.7834L33.6033 25.9034C32.7033 26.4334 31.3333 26.4934 30.5433 26.0334Z" fill="#5793CE"/>
<path d="M31.7734 19.8634L30.0034 18.8434C29.8934 18.7834 29.9134 18.6734 30.0334 18.6034L31.7434 17.6134C31.8734 17.5434 32.0534 17.5334 32.1634 17.5934L33.9334 18.6134C34.0434 18.6734 34.0234 18.7834 33.9034 18.8534L32.1934 19.8434C32.0634 19.9134 31.8734 19.9234 31.7734 19.8634Z" fill="#D4ECFF"/>
<path d="M17.7633 18.6634L17.8033 18.6834C17.8633 18.6434 17.9133 18.5934 17.9833 18.5534L30.3233 11.4334C31.2333 10.9134 32.6033 10.8534 33.3833 11.3034L46.1233 18.6634C46.8433 18.1434 46.8833 17.4434 46.1633 17.0234L33.3833 9.64338C32.6033 9.19338 31.2333 9.24338 30.3233 9.77338L17.9833 16.8934C17.0833 17.4134 16.9833 18.2034 17.7633 18.6634Z" fill="#396CAA"/>
</g>
<defs>
<clipPath id="clip0">
<rect width="62.94" height="62.63" fill="white" transform="translate(0.493286 0.123383)"/>
</clipPath>
</defs>
</svg>
