<svg width="48" height="43" viewBox="0 0 48 43" fill="none" xmlns="http://www.w3.org/2000/svg">
<g clip-path="url(#clip0)">
<path opacity="0.5" d="M26.6906 42.3971C37.883 41.1573 46.3761 34.9147 45.6604 28.454C44.9447 21.9932 35.2913 17.7609 24.0989 19.0007C12.9065 20.2406 4.41344 26.4831 5.12913 32.9439C5.84482 39.4046 15.4982 43.637 26.6906 42.3971Z" fill="#173D7A"/>
<path d="M47.3458 18.1384L46.6258 11.6684L45.4058 11.8084C44.0958 10.0384 42.0758 8.46839 39.3058 7.24839C29.7258 3.04839 15.1358 4.66839 6.70582 10.8584C4.26582 12.6484 2.63582 14.6284 1.74582 16.6484L0.525818 16.7884L1.23582 23.2284C1.59582 26.6484 4.22582 29.8184 9.03582 31.9284C18.6158 36.1284 33.2058 34.5084 41.6358 28.3184C45.8458 25.1984 47.7258 21.5484 47.3458 18.1384Z" fill="#833DB8"/>
<path d="M25.049 27.527C37.7784 26.1169 47.4375 19.0154 46.6233 11.6654C45.8091 4.31543 34.8299 -0.499791 22.1005 0.910312C9.37119 2.32042 -0.287959 9.42187 0.526241 16.7719C1.34044 24.1218 12.3197 28.9371 25.049 27.527Z" fill="#B461F2"/>
<path d="M40.9158 21.8284C32.4858 28.0284 17.8958 29.6384 8.31583 25.4384C3.72583 23.4284 1.14583 20.4384 0.605835 17.1984C0.805835 20.7684 3.42584 24.0984 8.41583 26.2884C17.9958 30.4884 32.5858 28.8684 41.0158 22.6784C45.4058 19.4484 47.2258 15.6284 46.6458 12.0984C46.8258 15.3784 44.9558 18.8584 40.9158 21.8284Z" fill="white"/>
<path d="M12.9558 19.8584C12.5458 19.6784 12.2858 19.3984 12.2558 19.0784L11.3158 10.4084C11.2458 9.7484 12.1158 9.1084 13.2658 8.9784C14.4158 8.8484 15.3958 9.2884 15.4658 9.9484L16.2458 17.1384L36.8258 12.2684C37.9358 12.0084 39.0758 12.2984 39.3858 12.9184C39.6958 13.5384 39.0458 14.2584 37.9458 14.5184L14.8858 19.9684C14.2858 20.1084 13.6358 20.0984 13.1158 19.9184C13.0658 19.9084 13.0058 19.8784 12.9558 19.8584Z" fill="white"/>
</g>
<defs>
<clipPath id="clip0">
<rect width="46.92" height="41.94" fill="white" transform="translate(0.47583 0.668396)"/>
</clipPath>
</defs>
</svg>
