<svg width="51" height="51" viewBox="0 0 51 51" fill="none" xmlns="http://www.w3.org/2000/svg">
<g clip-path="url(#clip0)">
<path d="M48.675 11.6177C47.3187 9.20518 45.8469 8.76143 42.85 8.59268C39.8562 8.38955 32.3281 8.30518 25.8062 8.30518C19.2719 8.30518 11.7406 8.38955 8.74999 8.58955C5.75936 8.76143 4.28436 9.20205 2.91561 11.6177C1.51874 14.0271 0.799988 18.1771 0.799988 25.4833C0.799988 25.4896 0.799988 25.4927 0.799988 25.4927C0.799988 25.4989 0.799988 25.5021 0.799988 25.5021V25.5083C0.799988 32.7833 1.51874 36.9646 2.91561 39.3489C4.28436 41.7614 5.75624 42.1989 8.74686 42.4021C11.7406 42.5771 19.2719 42.6802 25.8062 42.6802C32.3281 42.6802 39.8562 42.577 42.8531 42.4052C45.85 42.202 47.3219 41.7646 48.6781 39.3521C50.0875 36.9677 50.8 32.7864 50.8 25.5114C50.8 25.5114 50.8 25.5021 50.8 25.4958C50.8 25.4958 50.8 25.4896 50.8 25.4864C50.8 18.1771 50.0875 14.0271 48.675 11.6177Z" fill="#F44336"/>
<path d="M19.55 34.8677V16.1177L35.175 25.4927L19.55 34.8677Z" fill="#FAFAFA"/>
</g>
<defs>
<clipPath id="clip0">
<rect width="50" height="50" fill="white" transform="translate(0.799988 0.492676)"/>
</clipPath>
</defs>
</svg>
