<svg width="359" height="368" viewBox="0 0 359 368" fill="none" xmlns="http://www.w3.org/2000/svg">
<path opacity="0.5" d="M182.892 355.492L28.8005 277.812C24.444 275.611 24.734 271.332 29.4456 268.237L127.717 203.827C132.429 200.732 139.786 200.017 144.142 202.209L298.234 279.888C302.59 282.09 302.3 286.369 297.589 289.464L199.317 353.873C194.616 356.968 187.259 357.683 182.892 355.492Z" fill="#173D7A"/>
<path d="M337.63 93.9422L172.031 10.4708C170.111 9.5039 168.202 9.43809 166.56 10.1153L166.569 10.0943L166.279 10.2234C166.259 10.2348 166.229 10.2468 166.21 10.2581L160.545 12.803L165.887 15.051C165.872 15.1441 165.847 15.2378 165.832 15.3411L144.813 145.797C143.844 151.825 146.853 158.622 151.536 160.979L313.148 242.443L312.962 249.103L319.155 246.293C321.223 245.182 322.801 242.828 323.323 239.581L344.342 109.125C345.332 103.106 342.324 96.309 337.63 93.9422Z" fill="#173D7A"/>
<path d="M337.63 93.9422L172.031 10.4708C170.111 9.5039 168.202 9.43808 166.56 10.1153L166.569 10.0943L166.279 10.2234C166.259 10.2348 166.229 10.2468 166.21 10.2581L160.545 12.803L165.887 15.051C165.872 15.1441 165.847 15.2378 165.832 15.3411L151.419 104.756L233.345 161.429L343.059 100.058C341.84 97.3508 339.94 95.1123 337.63 93.9422Z" fill="#396CAA"/>
<path d="M332.621 112.566L344.53 106.675C344.487 101.934 342.249 97.1636 338.894 94.7311L320.032 103.957L332.621 112.566Z" fill="#274F89"/>
<path d="M307.37 248.786L141.771 165.314C137.088 162.957 134.079 156.15 135.049 150.132L156.068 19.676C157.037 13.6476 161.623 10.6824 166.306 13.0396L331.905 96.511C336.588 98.8682 339.597 105.675 338.627 111.693L317.609 242.149C316.64 248.188 312.054 251.153 307.37 248.786Z" fill="#D4ECFF"/>
<path d="M333.416 95.8719L167.817 12.4005C165.549 11.2587 163.312 11.3857 161.489 12.483C162.982 12.0704 164.64 12.2018 166.307 13.0498L331.905 96.5212C336.588 98.8784 339.598 105.685 338.628 111.703L317.609 242.159C317.109 245.261 315.64 247.538 313.698 248.703C316.37 247.957 318.488 245.378 319.109 241.511L340.128 111.055C341.108 105.036 338.099 98.2291 333.416 95.8719Z" fill="white"/>
<path d="M303.396 240.148L147.651 161.681C143.369 159.516 140.608 153.3 141.494 147.789L160.87 27.5592C161.756 22.0479 165.956 19.33 170.239 21.4947L325.984 99.9618C330.267 102.127 333.027 108.343 332.141 113.854L312.765 234.074C311.879 239.585 307.679 242.303 303.396 240.148Z" fill="white"/>
<path d="M303.396 240.148L147.651 161.681C143.369 159.516 140.608 153.3 141.494 147.789L160.87 27.5592C161.756 22.0479 165.956 19.33 170.239 21.4947L325.984 99.9618C330.267 102.127 333.027 108.343 332.141 113.854L312.765 234.074C311.879 239.585 307.679 242.303 303.396 240.148Z" fill="#223D69"/>
<path d="M304.683 239.532L148.938 161.065C144.655 158.9 141.895 152.684 142.781 147.173L162.156 26.9432C162.603 24.1515 163.91 22.0896 165.631 20.998C163.275 21.7465 161.432 24.1052 160.869 27.549L141.504 147.788C140.618 153.3 143.369 159.527 147.662 161.681L303.407 240.148C305.527 241.216 307.62 241.087 309.301 240.018C307.882 240.468 306.287 240.343 304.683 239.532Z" fill="#5793CE"/>
<path d="M309.815 252.694L287.734 251.047L141.617 177.393C136.934 175.035 129.027 175.812 123.959 179.132L26.9911 242.679L13.6354 241.685L14.062 249.202L14.0722 249.201C14.089 250.942 15.1645 252.561 17.3794 253.675L182.978 337.147C187.661 339.504 195.568 338.727 200.636 335.407L306.248 266.196C309.092 264.323 310.439 262.054 310.24 259.996L309.826 252.693L309.815 252.694Z" fill="#173D7A"/>
<path d="M200.578 207.11L190.199 201.88L79.6836 208.152L26.9809 242.68L13.6252 241.686L14.0518 249.202L14.062 249.202C14.0789 250.943 15.1544 252.562 17.3693 253.676L182.968 337.147C185.447 338.4 188.818 338.762 192.196 338.345L200.578 207.11Z" fill="#396CAA"/>
<path d="M19.562 242.127L13.6354 241.685L14.062 249.202L14.0722 249.201C14.089 250.942 15.1645 252.561 17.3793 253.675L20.301 255.149L19.562 242.127Z" fill="#5793CE"/>
<path d="M184.635 337.81C189.027 339.201 195.155 338.494 199.615 336.028L198.664 319.259L183.63 320.112L184.635 337.81Z" fill="#274F89"/>
<path d="M182.552 329.64L16.9529 246.159C12.2699 243.801 12.5821 239.193 17.6397 235.874L123.251 166.662C128.319 163.342 136.226 162.565 140.909 164.923L306.508 248.394C311.191 250.751 310.879 255.359 305.821 258.679L200.209 327.89C195.142 331.221 187.235 331.997 182.552 329.64Z" fill="#D4ECFF"/>
<path d="M305.656 255.942L200.044 325.154C194.976 328.474 187.069 329.251 182.386 326.893L16.797 243.411C15.2572 242.638 14.2772 241.618 13.8031 240.487C13.2202 242.672 14.2424 244.796 16.9529 246.159L182.552 329.63C187.235 331.987 195.142 331.211 200.209 327.89L305.821 258.679C309.229 256.446 310.474 253.64 309.512 251.318C309.07 252.91 307.789 254.54 305.656 255.942Z" fill="white"/>
<path d="M83.4065 211.648L75.9178 207.872C75.3165 207.568 75.355 206.982 76.007 206.556L84.2848 201.127C84.9368 200.701 85.9456 200.603 86.557 200.906L94.0458 204.682C94.647 204.986 94.6086 205.572 93.9565 205.998L85.6782 211.417C85.0261 211.843 84.0072 211.942 83.4065 211.648Z" fill="#5793CE"/>
<path d="M94.9768 217.477L87.488 213.701C86.8868 213.397 86.9252 212.811 87.5773 212.385L95.8551 206.956C96.5071 206.53 97.5158 206.432 98.1273 206.735L105.616 210.511C106.217 210.815 106.179 211.401 105.527 211.827L97.249 217.256C96.597 217.682 95.578 217.781 94.9768 217.477Z" fill="#5793CE"/>
<path d="M106.548 223.307L99.0591 219.531C98.4579 219.227 98.4963 218.641 99.1484 218.215L107.426 212.786C108.078 212.36 109.087 212.262 109.698 212.565L117.187 216.341C117.788 216.645 117.75 217.231 117.098 217.657L108.82 223.086C108.168 223.512 107.149 223.611 106.548 223.307Z" fill="#5793CE"/>
<path d="M121.748 217.086L114.259 213.31C113.658 213.006 113.697 212.42 114.349 211.994L121.303 207.439C121.955 207.013 122.964 206.915 123.575 207.218L131.064 210.994C131.665 211.298 131.627 211.884 130.975 212.31L124.02 216.865C123.358 217.292 122.349 217.39 121.748 217.086Z" fill="#5793CE"/>
<path d="M133.319 222.925L125.831 219.149C125.229 218.845 125.268 218.259 125.92 217.833L132.874 213.278C133.526 212.852 134.535 212.754 135.147 213.057L142.635 216.833C143.237 217.137 143.198 217.723 142.546 218.149L135.592 222.704C134.929 223.121 133.92 223.219 133.319 222.925Z" fill="#5793CE"/>
<path d="M144.89 228.754L137.401 224.978C136.8 224.674 136.838 224.088 137.49 223.662L144.445 219.107C145.097 218.681 146.106 218.583 146.717 218.886L154.206 222.662C154.807 222.966 154.769 223.552 154.117 223.978L147.162 228.533C146.5 228.96 145.491 229.058 144.89 228.754Z" fill="#5793CE"/>
<path d="M156.461 234.583L148.972 230.807C148.371 230.503 148.409 229.917 149.061 229.491L156.016 224.936C156.668 224.51 157.676 224.412 158.288 224.715L165.777 228.491C166.378 228.795 166.339 229.381 165.687 229.808L158.733 234.362C158.071 234.789 157.062 234.887 156.461 234.583Z" fill="#5793CE"/>
<path d="M168.032 240.422L160.543 236.647C159.942 236.343 159.98 235.756 160.632 235.33L167.587 230.776C168.239 230.349 169.248 230.251 169.859 230.555L177.348 234.33C177.949 234.634 177.911 235.22 177.259 235.647L170.304 240.201C169.641 240.618 168.633 240.726 168.032 240.422Z" fill="#5793CE"/>
<path d="M179.603 246.251L172.114 242.476C171.513 242.172 171.551 241.586 172.203 241.159L179.157 236.605C179.81 236.178 180.818 236.08 181.43 236.384L188.918 240.159C189.52 240.463 189.481 241.049 188.829 241.476L181.875 246.03C181.213 246.457 180.204 246.555 179.603 246.251Z" fill="#5793CE"/>
<path d="M191.173 252.08L183.684 248.305C183.083 248.001 183.122 247.415 183.774 246.988L190.728 242.434C191.38 242.007 192.389 241.909 193 242.213L200.489 245.988C201.09 246.292 201.052 246.879 200.4 247.305L193.445 251.859C192.783 252.286 191.774 252.384 191.173 252.08Z" fill="#5793CE"/>
<path d="M202.744 257.92L195.256 254.144C194.654 253.84 194.693 253.254 195.345 252.827L202.299 248.273C202.951 247.847 203.96 247.748 204.572 248.052L212.06 251.828C212.662 252.132 212.623 252.718 211.971 253.144L205.017 257.699C204.354 258.125 203.346 258.224 202.744 257.92Z" fill="#5793CE"/>
<path d="M214.315 263.749L206.826 259.973C206.225 259.669 206.264 259.083 206.916 258.657L213.87 254.102C214.522 253.676 215.531 253.578 216.142 253.881L223.631 257.657C224.232 257.961 224.194 258.547 223.542 258.973L216.587 263.528C215.925 263.955 214.916 264.053 214.315 263.749Z" fill="#5793CE"/>
<path d="M225.886 269.578L218.397 265.802C217.796 265.498 217.834 264.912 218.486 264.486L225.441 259.931C226.093 259.505 227.101 259.407 227.713 259.71L235.202 263.486C235.803 263.79 235.764 264.376 235.112 264.802L228.158 269.357C227.496 269.784 226.487 269.882 225.886 269.578Z" fill="#5793CE"/>
<path d="M138.079 213.085L130.59 209.31C129.989 209.006 130.027 208.419 130.679 207.993L137.634 203.439C138.286 203.012 139.294 202.914 139.906 203.217L147.394 206.993C147.996 207.297 147.957 207.883 147.305 208.31L140.351 212.864C139.699 213.29 138.68 213.389 138.079 213.085Z" fill="#5793CE"/>
<path d="M126.339 207.174L118.851 203.398C118.249 203.094 118.288 202.508 118.94 202.081L125.894 197.527C126.546 197.101 127.555 197.002 128.167 197.306L135.655 201.081C136.257 201.385 136.218 201.972 135.566 202.398L128.612 206.952C127.949 207.369 126.94 207.467 126.339 207.174Z" fill="#5793CE"/>
<path d="M114.567 201.243L98.4299 193.112C97.8287 192.808 97.8671 192.221 98.5192 191.795L105.474 187.241C106.126 186.814 107.134 186.716 107.746 187.019L123.883 195.151C124.485 195.455 124.446 196.041 123.794 196.467L116.84 201.021C116.187 201.438 115.169 201.547 114.567 201.243Z" fill="#5793CE"/>
<path d="M122.079 192.794L108.98 186.191C108.378 185.887 108.417 185.301 109.069 184.875L116.023 180.32C116.675 179.894 117.684 179.796 118.296 180.099L131.395 186.702C131.997 187.006 131.958 187.592 131.306 188.018L124.352 192.573C123.689 192.989 122.681 193.098 122.079 192.794Z" fill="#5793CE"/>
<path d="M149.65 218.924L142.161 215.149C141.56 214.845 141.598 214.259 142.25 213.832L149.205 209.278C149.857 208.851 150.866 208.753 151.477 209.057L158.966 212.832C159.567 213.136 159.528 213.723 158.876 214.149L151.922 218.703C151.27 219.13 150.251 219.228 149.65 218.924Z" fill="#5793CE"/>
<path d="M161.22 224.753L153.732 220.978C153.13 220.674 153.169 220.088 153.821 219.661L160.775 215.107C161.427 214.681 162.436 214.582 163.048 214.886L170.536 218.661C171.138 218.965 171.099 219.552 170.447 219.978L163.493 224.532C162.841 224.959 161.822 225.057 161.22 224.753Z" fill="#5793CE"/>
<path d="M172.791 230.583L165.302 226.807C164.701 226.503 164.74 225.917 165.392 225.49L172.346 220.936C172.998 220.51 174.007 220.411 174.618 220.715L182.107 224.49C182.708 224.794 182.67 225.381 182.018 225.807L175.063 230.361C174.411 230.788 173.392 230.887 172.791 230.583Z" fill="#5793CE"/>
<path d="M184.362 236.422L176.874 232.646C176.272 232.342 176.311 231.756 176.963 231.33L183.917 226.775C184.569 226.349 185.578 226.251 186.189 226.554L193.678 230.33C194.279 230.634 194.241 231.22 193.589 231.646L186.635 236.201C185.982 236.627 184.964 236.726 184.362 236.422Z" fill="#5793CE"/>
<path d="M195.933 242.251L188.444 238.475C187.843 238.171 187.881 237.585 188.533 237.159L195.488 232.604C196.14 232.178 197.149 232.08 197.76 232.383L205.249 236.159C205.85 236.463 205.812 237.049 205.16 237.475L198.205 242.03C197.553 242.456 196.534 242.555 195.933 242.251Z" fill="#5793CE"/>
<path d="M207.504 248.09L200.015 244.314C199.414 244.01 199.453 243.424 200.105 242.998L207.059 238.443C207.711 238.017 208.72 237.919 209.331 238.222L216.82 241.998C217.421 242.302 217.383 242.888 216.731 243.315L209.776 247.869C209.124 248.285 208.105 248.384 207.504 248.09Z" fill="#5793CE"/>
<path d="M219.075 253.919L211.586 250.143C210.985 249.839 211.023 249.253 211.675 248.827L218.63 244.272C219.282 243.846 220.291 243.748 220.902 244.051L228.391 247.827C228.992 248.131 228.954 248.717 228.302 249.144L221.347 253.698C220.695 254.124 219.676 254.223 219.075 253.919Z" fill="#5793CE"/>
<path d="M230.645 259.748L223.157 255.972C222.555 255.668 222.594 255.082 223.246 254.656L230.2 250.102C230.852 249.675 231.861 249.577 232.473 249.88L239.961 253.656C240.563 253.96 240.524 254.546 239.872 254.973L232.918 259.527C232.266 259.953 231.247 260.052 230.645 259.748Z" fill="#5793CE"/>
<path d="M242.217 265.587L234.728 261.812C234.127 261.508 234.165 260.922 234.817 260.495L241.772 255.941C242.424 255.514 243.432 255.416 244.044 255.72L251.533 259.495C252.134 259.799 252.095 260.386 251.443 260.812L244.489 265.366C243.836 265.782 242.818 265.891 242.217 265.587Z" fill="#5793CE"/>
<path d="M262.785 275.957L246.436 267.715C245.835 267.411 245.873 266.825 246.525 266.398L253.48 261.844C254.132 261.418 255.141 261.319 255.752 261.623L272.101 269.865C272.702 270.169 272.663 270.755 272.011 271.181L265.057 275.736C264.404 276.152 263.385 276.251 262.785 275.957Z" fill="#5793CE"/>
<path d="M283.885 262.116L270.089 255.163C269.487 254.86 269.526 254.273 270.178 253.847L277.132 249.293C277.784 248.866 278.793 248.768 279.405 249.071L293.2 256.024C293.802 256.328 293.763 256.914 293.111 257.34L286.157 261.895C285.505 262.321 284.486 262.42 283.885 262.116Z" fill="#5793CE"/>
<path d="M169.197 216.545L161.709 212.769C161.107 212.465 161.146 211.879 161.798 211.452L168.752 206.898C169.404 206.472 170.413 206.373 171.024 206.677L178.513 210.453C179.114 210.756 179.076 211.343 178.424 211.769L171.469 216.323C170.817 216.75 169.798 216.849 169.197 216.545Z" fill="#5793CE"/>
<path d="M157.342 210.568L149.853 206.792C149.252 206.488 149.29 205.902 149.942 205.476L156.897 200.921C157.549 200.495 158.557 200.397 159.169 200.7L166.658 204.476C167.259 204.78 167.22 205.366 166.568 205.792L159.614 210.347C158.951 210.763 157.943 210.872 157.342 210.568Z" fill="#5793CE"/>
<path d="M145.476 204.592L137.987 200.816C137.386 200.512 137.424 199.926 138.076 199.499L145.031 194.945C145.683 194.519 146.692 194.42 147.303 194.724L154.792 198.499C155.393 198.803 155.354 199.39 154.702 199.816L147.748 204.37C147.095 204.787 146.076 204.885 145.476 204.592Z" fill="#5793CE"/>
<path d="M133.619 198.605L126.131 194.829C125.53 194.525 125.568 193.939 126.22 193.512L133.174 188.958C133.826 188.532 134.835 188.433 135.447 188.737L142.935 192.512C143.537 192.816 143.498 193.403 142.846 193.829L135.892 198.383C135.24 198.81 134.221 198.909 133.619 198.605Z" fill="#5793CE"/>
<path d="M180.768 222.374L173.279 218.598C172.678 218.294 172.716 217.708 173.368 217.281L180.323 212.727C180.975 212.301 181.984 212.202 182.595 212.506L190.084 216.282C190.685 216.586 190.647 217.172 189.995 217.598L183.04 222.152C182.388 222.579 181.369 222.678 180.768 222.374Z" fill="#5793CE"/>
<path d="M192.339 228.213L184.85 224.437C184.249 224.133 184.288 223.547 184.94 223.121L191.894 218.566C192.546 218.14 193.555 218.042 194.166 218.345L201.655 222.121C202.256 222.425 202.218 223.011 201.566 223.437L194.611 227.992C193.959 228.408 192.94 228.507 192.339 228.213Z" fill="#5793CE"/>
<path d="M203.91 234.042L196.421 230.266C195.82 229.962 195.858 229.376 196.51 228.95L203.465 224.395C204.117 223.969 205.126 223.871 205.737 224.174L213.226 227.95C213.827 228.254 213.789 228.84 213.136 229.266L206.182 233.821C205.53 234.247 204.511 234.346 203.91 234.042Z" fill="#5793CE"/>
<path d="M215.48 239.871L207.992 236.095C207.39 235.791 207.429 235.205 208.081 234.779L215.035 230.224C215.687 229.798 216.696 229.7 217.308 230.003L224.796 233.779C225.398 234.083 225.359 234.669 224.707 235.095L217.753 239.65C217.101 240.076 216.082 240.175 215.48 239.871Z" fill="#5793CE"/>
<path d="M227.052 245.71L219.563 241.935C218.962 241.631 219 241.044 219.652 240.618L226.607 236.064C227.259 235.637 228.267 235.539 228.879 235.842L236.368 239.618C236.969 239.922 236.93 240.508 236.278 240.935L229.324 245.489C228.671 245.905 227.653 246.014 227.052 245.71Z" fill="#5793CE"/>
<path d="M238.622 251.539L231.134 247.764C230.532 247.46 230.571 246.873 231.223 246.447L238.177 241.893C238.829 241.466 239.838 241.368 240.45 241.671L247.938 245.447C248.539 245.751 248.501 246.337 247.849 246.764L240.895 251.318C240.243 251.744 239.224 251.843 238.622 251.539Z" fill="#5793CE"/>
<path d="M250.193 257.368L242.704 253.593C242.103 253.289 242.141 252.702 242.793 252.276L249.748 247.722C250.4 247.295 251.409 247.197 252.02 247.501L259.509 251.276C260.11 251.58 260.072 252.166 259.42 252.593L252.465 257.147C251.813 257.574 250.794 257.672 250.193 257.368Z" fill="#5793CE"/>
<path d="M261.764 263.208L254.275 259.432C253.674 259.128 253.713 258.542 254.365 258.115L261.319 253.561C261.971 253.135 262.98 253.036 263.591 253.34L271.08 257.115C271.681 257.419 271.643 258.006 270.991 258.432L264.036 262.986C263.384 263.403 262.365 263.512 261.764 263.208Z" fill="#5793CE"/>
<path d="M273.335 269.037L265.846 265.261C265.245 264.957 265.283 264.371 265.935 263.944L272.89 259.39C273.542 258.964 274.551 258.865 275.162 259.169L282.651 262.945C283.252 263.249 283.214 263.835 282.562 264.261L275.607 268.816C274.955 269.242 273.936 269.341 273.335 269.037Z" fill="#5793CE"/>
<path d="M162.386 200.876L154.897 197.1C154.296 196.796 154.334 196.21 154.986 195.784L161.941 191.229C162.593 190.803 163.602 190.705 164.213 191.008L171.702 194.784C172.303 195.088 172.265 195.674 171.613 196.1L164.658 200.655C164.006 201.081 162.987 201.18 162.386 200.876Z" fill="#5793CE"/>
<path d="M150.878 195.074L143.39 191.298C142.788 190.994 142.827 190.408 143.479 189.982L150.433 185.427C151.085 185.001 152.094 184.903 152.705 185.206L160.194 188.982C160.795 189.286 160.757 189.872 160.105 190.298L153.15 194.853C152.488 195.28 151.48 195.378 150.878 195.074Z" fill="#5793CE"/>
<path d="M139.36 189.273L131.872 185.497C131.27 185.193 131.309 184.607 131.961 184.18L138.915 179.626C139.567 179.2 140.576 179.101 141.188 179.405L148.676 183.18C149.278 183.484 149.239 184.071 148.587 184.497L141.633 189.051C140.981 189.478 139.962 189.577 139.36 189.273Z" fill="#5793CE"/>
<path d="M127.853 183.471L120.364 179.695C119.763 179.391 119.801 178.805 120.453 178.378L127.408 173.824C128.06 173.398 129.069 173.299 129.68 173.603L137.169 177.379C137.77 177.683 137.732 178.269 137.079 178.695L130.125 183.25C129.462 183.666 128.454 183.775 127.853 183.471Z" fill="#5793CE"/>
<path d="M138.936 176.202L131.448 172.427C130.846 172.123 130.885 171.536 131.537 171.11L133.839 169.607C134.491 169.18 135.5 169.082 136.111 169.385L143.6 173.161C144.201 173.465 144.163 174.051 143.51 174.478L141.209 175.981C140.556 176.397 139.537 176.496 138.936 176.202Z" fill="#5793CE"/>
<path d="M153.966 183.772L146.478 179.996C145.876 179.692 145.915 179.106 146.567 178.679L148.869 177.176C149.521 176.749 150.53 176.651 151.141 176.955L158.63 180.73C159.231 181.034 159.193 181.62 158.54 182.047L156.239 183.55C155.576 183.977 154.568 184.076 153.966 183.772Z" fill="#5793CE"/>
<path d="M165.432 189.555L157.943 185.78C157.342 185.476 157.38 184.889 158.032 184.463L160.334 182.96C160.986 182.533 161.995 182.435 162.607 182.738L170.095 186.514C170.697 186.818 170.658 187.404 170.006 187.831L167.704 189.334C167.041 189.751 166.033 189.849 165.432 189.555Z" fill="#5793CE"/>
<path d="M176.897 195.329L169.408 191.553C168.807 191.249 168.845 190.663 169.497 190.237L171.799 188.733C172.451 188.307 173.46 188.209 174.072 188.512L181.56 192.288C182.162 192.592 182.123 193.178 181.471 193.604L179.169 195.108C178.507 195.535 177.498 195.633 176.897 195.329Z" fill="#5793CE"/>
<path d="M188.363 201.113L180.874 197.337C180.273 197.033 180.311 196.447 180.963 196.02L183.265 194.517C183.917 194.091 184.926 193.992 185.537 194.296L193.026 198.071C193.627 198.375 193.589 198.962 192.937 199.388L190.635 200.892C189.973 201.318 188.964 201.417 188.363 201.113Z" fill="#5793CE"/>
<path d="M252.366 233.372L244.877 229.596C244.276 229.292 244.314 228.706 244.966 228.28L247.268 226.776C247.92 226.35 248.929 226.252 249.541 226.555L257.029 230.331C257.631 230.635 257.592 231.221 256.94 231.647L254.638 233.151C253.986 233.577 252.967 233.676 252.366 233.372Z" fill="#5793CE"/>
<path d="M263.832 239.156L256.343 235.38C255.742 235.076 255.78 234.49 256.432 234.064L258.734 232.56C259.386 232.134 260.395 232.035 261.006 232.339L268.495 236.115C269.096 236.419 269.058 237.005 268.406 237.431L266.104 238.935C265.452 239.361 264.433 239.46 263.832 239.156Z" fill="#5793CE"/>
<path d="M275.297 244.94L267.808 241.164C267.207 240.86 267.246 240.274 267.898 239.847L270.2 238.344C270.852 237.917 271.86 237.819 272.472 238.123L279.96 241.898C280.562 242.202 280.523 242.788 279.871 243.215L277.569 244.718C276.917 245.134 275.898 245.244 275.297 244.94Z" fill="#5793CE"/>
<path d="M286.762 250.713L279.273 246.937C278.672 246.633 278.711 246.047 279.363 245.621L281.665 244.117C282.317 243.691 283.325 243.593 283.937 243.896L291.426 247.672C292.027 247.976 291.988 248.562 291.336 248.988L289.034 250.492C288.382 250.918 287.363 251.017 286.762 250.713Z" fill="#5793CE"/>
<path d="M173.957 206.715L166.468 202.939C165.867 202.635 165.906 202.049 166.558 201.623L173.512 197.068C174.164 196.642 175.173 196.544 175.784 196.847L183.273 200.623C183.874 200.927 183.836 201.513 183.184 201.939L176.229 206.494C175.577 206.91 174.558 207.009 173.957 206.715Z" fill="#5793CE"/>
<path d="M185.528 212.544L178.039 208.768C177.438 208.464 177.476 207.878 178.128 207.452L185.083 202.897C185.735 202.471 186.743 202.373 187.355 202.676L194.844 206.452C195.445 206.756 195.406 207.342 194.754 207.768L187.8 212.323C187.148 212.749 186.129 212.848 185.528 212.544Z" fill="#5793CE"/>
<path d="M197.098 218.373L189.61 214.597C189.008 214.293 189.047 213.707 189.699 213.281L196.653 208.726C197.305 208.3 198.314 208.202 198.926 208.505L206.414 212.281C207.015 212.585 206.977 213.171 206.325 213.597L199.371 218.152C198.719 218.578 197.7 218.677 197.098 218.373Z" fill="#5793CE"/>
<path d="M208.67 224.212L201.181 220.437C200.58 220.133 200.618 219.546 201.27 219.12L208.225 214.566C208.877 214.139 209.885 214.041 210.497 214.345L217.986 218.12C218.587 218.424 218.548 219.01 217.896 219.437L210.942 223.991C210.289 224.407 209.271 224.516 208.67 224.212Z" fill="#5793CE"/>
<path d="M220.24 230.041L212.751 226.266C212.15 225.962 212.189 225.375 212.841 224.949L219.795 220.395C220.447 219.968 221.456 219.87 222.067 220.174L229.556 223.949C230.157 224.253 230.119 224.839 229.467 225.266L222.512 229.82C221.86 230.247 220.841 230.345 220.24 230.041Z" fill="#5793CE"/>
<path d="M231.811 235.87L224.322 232.095C223.721 231.791 223.759 231.205 224.411 230.778L231.366 226.224C232.018 225.797 233.027 225.699 233.638 226.003L241.127 229.778C241.728 230.082 241.69 230.668 241.038 231.095L234.083 235.649C233.431 236.076 232.412 236.174 231.811 235.87Z" fill="#5793CE"/>
<path d="M243.382 241.71L235.893 237.934C235.292 237.63 235.331 237.044 235.983 236.617L242.937 232.063C243.589 231.637 244.598 231.538 245.209 231.842L252.698 235.618C253.299 235.922 253.261 236.508 252.609 236.934L245.654 241.489C245.002 241.915 243.983 242.014 243.382 241.71Z" fill="#5793CE"/>
<path d="M254.953 247.539L247.464 243.763C246.863 243.459 246.901 242.873 247.553 242.446L254.508 237.892C255.16 237.466 256.168 237.367 256.78 237.671L264.269 241.447C264.87 241.751 264.831 242.337 264.179 242.763L257.225 247.318C256.573 247.744 255.554 247.843 254.953 247.539Z" fill="#5793CE"/>
<path d="M266.523 253.368L259.035 249.592C258.433 249.288 258.472 248.702 259.124 248.276L266.078 243.721C266.73 243.295 267.739 243.197 268.351 243.5L275.839 247.276C276.441 247.58 276.402 248.166 275.75 248.592L268.796 253.147C268.144 253.573 267.135 253.671 266.523 253.368Z" fill="#5793CE"/>
<path d="M109.955 211.146L87.89 200.021C87.2887 199.717 87.3272 199.131 87.9792 198.705L94.9337 194.15C95.5857 193.724 96.5945 193.626 97.2059 193.929L119.271 205.054C119.872 205.357 119.834 205.944 119.182 206.37L112.228 210.924C111.565 211.351 110.557 211.45 109.955 211.146Z" fill="#5793CE"/>
<path d="M252.107 282.803L230.042 271.678C229.441 271.374 229.479 270.788 230.131 270.362L237.086 265.807C237.738 265.381 238.746 265.283 239.358 265.586L261.423 276.711C262.024 277.015 261.986 277.601 261.334 278.027L254.38 282.582C253.717 283.008 252.709 283.107 252.107 282.803Z" fill="#5793CE"/>
<path d="M206.646 273.764L199.157 269.988C198.556 269.684 198.594 269.098 199.246 268.672L207.524 263.243C208.176 262.817 209.185 262.718 209.796 263.022L217.285 266.798C217.886 267.102 217.848 267.688 217.196 268.114L208.918 273.543C208.256 273.97 207.247 274.068 206.646 273.764Z" fill="#5793CE"/>
<path d="M122.612 231.402L110.63 225.36C110.028 225.056 110.067 224.47 110.719 224.044L118.997 218.615C119.649 218.189 120.657 218.091 121.269 218.394L133.251 224.435C133.852 224.739 133.814 225.325 133.162 225.752L124.884 231.18C124.232 231.607 123.213 231.706 122.612 231.402Z" fill="#5793CE"/>
<path d="M195.497 268.147L183.515 262.105C182.913 261.801 182.952 261.215 183.604 260.789L191.882 255.36C192.534 254.934 193.542 254.836 194.154 255.139L206.136 261.18C206.737 261.484 206.699 262.07 206.047 262.497L197.769 267.925C197.106 268.342 196.098 268.451 195.497 268.147Z" fill="#5793CE"/>
<path d="M139.309 239.819L127.327 233.778C126.726 233.474 126.764 232.887 127.416 232.461L135.694 227.032C136.346 226.606 137.355 226.508 137.966 226.811L149.948 232.852C150.549 233.156 150.511 233.743 149.859 234.169L141.581 239.598C140.919 240.025 139.91 240.123 139.309 239.819Z" fill="#5793CE"/>
<path d="M138.04 226.848L190.136 253.113C190.779 253.435 190.813 254.027 190.21 254.42L181.774 259.95C181.171 260.343 180.15 260.401 179.506 260.079L127.411 233.814L138.04 226.848Z" fill="#5793CE"/>
<path d="M238.614 283.712L246.957 287.921C247.453 288.17 247.419 288.653 246.886 289.001L243.497 291.222C242.964 291.57 242.129 291.658 241.643 291.409L233.3 287.2C232.804 286.952 232.838 286.468 233.372 286.121L236.76 283.9C237.294 283.552 238.129 283.463 238.614 283.712Z" fill="#5793CE"/>
<path d="M226.949 277.837L235.292 282.046C235.788 282.295 235.754 282.778 235.22 283.126L231.832 285.347C231.298 285.695 230.463 285.783 229.978 285.534L221.635 281.325C221.139 281.077 221.173 280.593 221.706 280.246L225.095 278.025C225.628 277.667 226.463 277.588 226.949 277.837Z" fill="#5793CE"/>
<path d="M215.377 271.998L223.721 276.207C224.216 276.456 224.182 276.939 223.649 277.287L220.261 279.508C219.727 279.856 218.892 279.944 218.406 279.695L210.063 275.486C209.568 275.238 209.602 274.754 210.135 274.406L213.523 272.185C214.057 271.838 214.892 271.749 215.377 271.998Z" fill="#5793CE"/>
<path d="M232.935 273.912L241.278 278.12C241.774 278.369 241.74 278.852 241.206 279.2L237.818 281.421C237.285 281.769 236.449 281.858 235.964 281.608L227.621 277.4C227.125 277.151 227.159 276.668 227.693 276.32L231.081 274.099C231.614 273.741 232.439 273.663 232.935 273.912Z" fill="#5793CE"/>
<path d="M270.035 145.176L207.699 113.765L208.252 109.799L270.589 141.21L270.035 145.176Z" fill="#D4ECFF"/>
<path d="M248.79 153.032L205.281 131.095L205.834 127.129L249.343 149.055L248.79 153.032Z" fill="#D4ECFF"/>
<path d="M244.134 141.4L206.49 122.43L207.043 118.464L244.688 137.434L244.134 141.4Z" fill="white"/>
<path d="M268.815 153.841L249.999 144.356L250.552 140.39L269.369 149.876L268.815 153.841Z" fill="#F16A51"/>
<path d="M199.33 79.895L180.514 70.4098L181.067 66.444L199.884 75.9292L199.33 79.895Z" fill="#D4ECFF"/>
<path d="M197.878 89.1268L179.051 79.6422L179.604 75.6764L198.431 85.161L197.878 89.1268Z" fill="white"/>
<path d="M294.491 210.52L275.674 201.035L276.228 197.059L295.045 206.554L294.491 210.52Z" fill="#D4ECFF"/>
<path d="M194.95 107.582L176.133 98.0963L176.687 94.1306L195.503 103.616L194.95 107.582Z" fill="#D4ECFF"/>
<path d="M234.481 108.177C233.971 109.476 232.536 110.008 231.261 109.373C229.996 108.738 229.374 107.165 229.884 105.866C230.394 104.567 231.829 104.035 233.104 104.669C234.38 105.304 234.992 106.877 234.481 108.177Z" fill="#F16A51"/>
<path d="M242.592 112.265C242.082 113.565 240.647 114.097 239.372 113.462C238.107 112.827 237.485 111.254 237.995 109.955C238.505 108.656 239.94 108.124 241.215 108.758C242.481 109.393 243.103 110.966 242.592 112.265Z" fill="white"/>
<path d="M250.693 116.344C250.182 117.644 248.748 118.176 247.472 117.541C246.207 116.906 245.585 115.333 246.095 114.034C246.605 112.735 248.04 112.203 249.315 112.837C250.592 113.482 251.203 115.045 250.693 116.344Z" fill="#D4ECFF"/>
<path d="M258.804 120.433C258.293 121.732 256.859 122.265 255.583 121.63C254.318 120.995 253.696 119.422 254.206 118.123C254.716 116.824 256.151 116.291 257.426 116.926C258.692 117.561 259.314 119.134 258.804 120.433Z" fill="#F16A51"/>
<g clip-path="url(#clip0)">
<path d="M50.8309 303.574C50.8309 303.574 46.9799 301.9 44.8428 304.835C42.7063 307.781 39.7978 314.597 39.9423 319.086C40.0969 323.574 43.7241 323.068 45.8405 321.886C47.9469 320.705 53.7649 311.15 54.0517 309.321C54.3291 307.502 53.3622 305.113 52.726 304.669C52.0803 304.234 50.8309 303.574 50.8309 303.574Z" fill="#C361F0"/>
<path d="M51.5986 302.629L51.9881 306.493C52.0751 307.32 51.7 308.122 51.0044 308.572C50.3764 308.979 49.4343 309.322 48.1445 309.185C45.3035 308.896 44.9981 308.102 44.5785 304.239C44.1584 300.367 51.5986 302.629 51.5986 302.629Z" fill="#D4ECFF"/>
<path d="M36.6998 296.894C36.6998 296.894 32.8487 295.22 30.7116 298.155C28.5751 301.101 25.6666 307.917 25.8112 312.406C25.9658 316.894 29.5929 316.388 31.7093 315.206C33.8158 314.025 39.6337 304.47 39.9206 302.641C40.2074 300.812 39.231 298.433 38.5948 297.988C37.9492 297.554 36.6998 296.894 36.6998 296.894Z" fill="#C361F0"/>
<path d="M37.4674 295.949L37.857 299.813C37.9439 300.64 37.5688 301.442 36.8732 301.892C36.2452 302.299 35.3032 302.642 34.0133 302.505C31.1724 302.216 30.8669 301.422 30.4474 297.559C30.0273 293.687 37.4674 295.949 37.4674 295.949Z" fill="#D4ECFF"/>
<path d="M66.8326 222.848C64.7011 204.88 47.4548 226.612 47.4548 226.612L35.5559 239.677L24.9119 252.791C22.8337 255.353 21.9918 258.696 22.6064 261.936L29.1832 296.64C29.5109 298.354 31.0605 299.538 32.7971 299.429C33.2863 299.402 33.8526 299.319 34.4859 299.183C38.543 298.312 38.0225 294.435 38.0225 294.435L35.3282 261.785L58.3446 246.066C58.344 246.056 68.9636 240.806 66.8326 222.848Z" fill="#173D7A"/>
<path d="M80.9204 228.939C78.7889 210.971 61.5425 232.703 61.5425 232.703L49.6437 245.769L38.9997 258.883C36.9215 261.445 36.0795 264.788 36.6941 268.028L43.271 302.731C43.5987 304.445 45.1482 305.629 46.8849 305.521C47.3741 305.493 47.9403 305.411 48.5737 305.275C52.6308 304.403 52.1103 300.527 52.1103 300.527L49.4892 268.814L72.4323 252.158C72.4417 252.147 83.0513 246.897 80.9204 228.939Z" fill="#173D7A"/>
<path d="M66.7433 171.681C81.0294 176.679 81.2179 184.942 81.2179 184.942C81.2179 184.942 80.1997 215.358 82.2844 235.503C83.1532 243.927 37.9228 247.145 43.3926 224.218C49.842 197.199 45.6358 175.853 49.1856 172.397C52.7266 168.96 63.0441 170.388 66.7433 171.681Z" fill="#C361F0"/>
<path d="M71.6514 178.744C71.0835 181.621 67.4544 183.329 63.544 182.549C59.6341 181.78 56.9319 178.818 57.4998 175.941C58.0678 173.064 61.6968 171.356 65.6073 172.136C69.5177 172.915 72.2193 175.867 71.6514 178.744Z" fill="#FFC2B0"/>
<path d="M65.9856 183.392C65.147 183.44 64.2821 183.379 63.421 183.207C61.3948 182.802 59.5975 181.842 58.3589 180.49C57.067 179.081 56.532 177.418 56.8518 175.818C57.1716 174.217 58.2977 172.881 60.0246 172.072C61.6834 171.297 63.7144 171.081 65.7407 171.487C67.7669 171.893 69.5642 172.853 70.8028 174.205C72.0947 175.614 72.6298 177.276 72.3099 178.877C71.9901 180.477 70.864 181.813 69.1371 182.623C68.1808 183.067 67.1138 183.328 65.9856 183.392ZM63.2415 172.631C62.283 172.685 61.3841 172.906 60.5835 173.272C59.2469 173.899 58.3916 174.889 58.1584 176.074C57.9246 177.249 58.346 178.497 59.3391 179.583C60.3855 180.725 61.9247 181.55 63.6768 181.891C65.4296 182.242 67.1622 182.064 68.5671 181.403C69.9037 180.776 70.759 179.786 70.9922 178.601C71.226 177.426 70.8046 176.178 69.8115 175.092C68.7651 173.95 67.2259 173.126 65.4738 172.784C64.7248 172.647 63.9703 172.589 63.2415 172.631Z" fill="white"/>
<path d="M61.1066 171.37C61.1066 171.37 61.2581 171.922 61.2695 176.358C61.2684 177.751 66.2142 178.772 67.4008 177.443C68.5874 176.113 68.014 174.834 68.0449 170.084C68.0759 165.335 61.1066 171.37 61.1066 171.37Z" fill="#FFC2B0"/>
<path d="M68.0555 170.094C68.0555 170.094 67.1067 174.555 61.2914 176.567L61.1546 172.569L68.0555 170.094Z" fill="#EA9C92"/>
<path d="M71.1665 158.729C72.9805 164.396 69.8587 170.452 64.1924 172.266C58.526 174.08 52.4694 170.958 50.6554 165.292C48.8415 159.626 51.9633 153.569 57.6296 151.755C63.296 149.941 69.3526 153.063 71.1665 158.729Z" fill="#FFC2B0"/>
<path d="M63.4044 162.265C63.4044 162.265 57.6279 165.137 53.5361 165.399C49.4444 165.661 50.1481 162.176 50.1481 162.176L62.2088 159.728L63.4044 162.265Z" fill="#EA9C92"/>
<path d="M52.1999 163.562C52.1999 163.562 57.2275 161.083 61.8018 161.735C62.872 161.884 63.8927 162.397 64.6297 163.207C64.8653 163.474 65.169 163.707 65.4924 163.759C66.3013 163.893 67.4305 160.494 68.9835 160.325C70.5364 160.157 71.6377 161.206 70.4759 163.326C69.3141 165.445 69.8731 167.707 70.4809 168.003C71.0886 168.299 78.0785 162.804 71.9592 152.224C65.8393 141.634 51.1742 148.666 49.1229 150.996C49.1229 150.996 46.9499 153.122 44.9821 151.451C44.9921 151.451 43.7927 167.204 52.1999 163.562Z" fill="#D4ECFF"/>
<path d="M74.6456 207.5L75.1096 215.677C75.1629 216.616 74.814 217.527 74.1613 218.205L58.2375 234.473L60.3099 237.281L82.5914 220.792C83.5873 219.984 84.1905 218.788 84.2483 217.512L84.9645 202.247L74.6456 207.5Z" fill="#FFC2B0"/>
<path d="M79.8081 180.925C79.8081 180.925 85.3351 188.304 88.3765 208.364C88.3765 208.364 79.8303 211.673 74.7976 210.356C69.7749 209.039 79.8081 180.925 79.8081 180.925Z" fill="#C361F0"/>
<path d="M72.7804 191.05C72.7804 191.05 71.3893 201.836 71.5645 206.864C71.6128 208.243 72.5222 209.444 73.8468 209.839L72.7804 191.05Z" fill="#B250DE"/>
<path d="M71.4301 244.382L67.6883 244.103L42.9415 231.626C42.1478 231.23 40.8128 231.356 39.9531 231.915L23.5269 242.683L21.2635 242.511L21.3904 244.748C21.3969 245.038 21.573 245.318 21.9543 245.507L50.0002 259.641C50.7939 260.036 52.1289 259.91 52.9886 259.351L70.8731 247.629C71.3559 247.311 71.5845 246.927 71.5447 246.579L71.4201 244.382L71.4301 244.382Z" fill="#5793CE"/>
<path d="M52.9327 236.658L51.1699 235.776L32.46 236.838L23.5369 242.683L21.2735 242.511L21.4004 244.747C21.4068 245.037 21.583 245.318 21.9643 245.506L50.0102 259.64C50.4326 259.846 50.9973 259.915 51.5741 259.842L52.9327 236.658Z" fill="#396CAA"/>
<path d="M22.2793 242.584L21.2735 242.511L21.4004 244.747C21.4069 245.037 21.5831 245.318 21.9644 245.506L22.4595 245.759L22.2793 242.584Z" fill="#5793CE"/>
<path d="M50.2871 259.755C51.0318 259.993 52.0668 259.874 52.824 259.45L52.6081 255.646L50.0622 255.791L50.2871 259.755Z" fill="#5793CE"/>
<path d="M49.8839 257.414L21.838 243.28C21.0443 242.884 21.0999 242.1 21.9596 241.54L39.8441 229.818C40.7038 229.259 42.0383 229.123 42.8325 229.528L70.8784 243.662C71.6721 244.058 71.6165 244.842 70.7568 245.402L52.8717 257.114C52.0126 257.683 50.6776 257.809 49.8839 257.414Z" fill="white"/>
<path d="M49.2898 255.064L25.9661 243.306C25.3062 242.973 25.3498 242.33 26.0642 241.858L35.6521 235.725C36.3666 235.254 37.4825 235.151 38.1424 235.484L61.4661 247.241C62.126 247.574 62.0824 248.218 61.368 248.689L51.7701 254.823C51.0551 255.284 49.9497 255.397 49.2898 255.064Z" fill="#D4ECFF"/>
<path d="M40.8625 229.229L40.6894 231.122C40.5405 232.733 40.6728 234.358 41.0818 235.918L41.5047 237.546C41.7471 238.464 42.5273 239.151 43.4654 239.268C44.2016 239.357 44.8616 238.808 44.8996 238.065L45.1216 234.036C45.1216 234.036 46.2265 235.325 46.7157 235.298C47.2149 235.269 45.9388 231.315 44.682 229.113C43.4446 226.899 40.8625 229.229 40.8625 229.229Z" fill="#FFC2B0"/>
<path d="M48.378 198.935L45.7902 204.871C45.179 206.278 44.854 207.789 44.8503 209.312L44.702 229.112L40.863 229.239L37.8585 207.184C37.7695 206.498 37.7609 205.818 37.8422 205.132L39.1916 193.787L48.378 198.935Z" fill="#FFC2B0"/>
<path d="M49.0509 258.973L46.6057 256.127L21.8772 243.618C21.083 243.213 20.3966 242.06 20.3388 241.041L19.2459 221.432L17.7661 219.713L19.0216 218.89C19.2621 218.717 19.5916 218.698 19.9629 218.887L47.9911 233.062C48.7853 233.467 49.4717 234.62 49.5295 235.639L50.721 256.986C50.7538 257.565 50.5768 257.975 50.2764 258.153L49.0509 258.973Z" fill="#173D7A"/>
<path d="M31.8496 248.671L30.0962 247.779L19.8405 232.085L19.2459 221.432L17.7661 219.713L19.0216 218.89C19.2621 218.717 19.5916 218.698 19.9629 218.887L47.9911 233.062C48.414 233.278 48.7983 233.697 49.0774 234.202L31.8496 248.671Z" fill="#396CAA"/>
<path d="M18.4105 220.478L17.7562 219.713L19.0116 218.891C19.2521 218.717 19.5816 218.698 19.9529 218.888L20.448 219.14L18.4105 220.478Z" fill="#5793CE"/>
<path d="M48.2409 233.228C48.8677 233.683 49.3902 234.595 49.5088 235.45L46.9398 237.128L45.5466 234.993L48.2409 233.228Z" fill="#274F89"/>
<path d="M46.7357 233.884L18.7075 219.71C17.9132 219.304 17.3214 219.818 17.3792 220.837L18.5707 242.183C18.629 243.212 19.3154 244.365 20.1091 244.76L48.1373 258.935C48.9316 259.341 49.5234 258.826 49.4656 257.808L48.2741 236.461C48.2164 235.443 47.5299 234.29 46.7357 233.884Z" fill="#5793CE"/>
<path d="M60.3093 237.271L59.921 238.194C59.4808 239.261 58.7413 240.174 57.7975 240.839L55.1959 242.649C54.3867 243.216 53.3306 243.316 52.4437 242.865C52.4126 242.847 52.3815 242.829 52.3504 242.81C51.4612 242.32 51.3117 241.097 51.9792 240.327L54.6303 237.272C54.6303 237.272 53.1114 238.57 52.6449 238.116C52.2951 237.775 54.0629 235.922 55.4878 235.791C56.9121 235.65 58.2264 234.454 58.2264 234.454L60.3093 237.271Z" fill="#FFC2B0"/>
<path d="M49.4635 172.351C49.4635 172.351 39.7775 184.169 36.1895 194.719C36.1895 194.719 40.0848 200.878 48.8625 202.884C57.6503 204.889 49.4635 172.351 49.4635 172.351Z" fill="#C361F0"/>
<path d="M46.8883 202.335L47.6482 186.076L44.5641 201.445C45.2834 201.765 46.0615 202.061 46.8883 202.335Z" fill="#B250DE"/>
<path d="M57.0624 169.646L54.2438 169.045C54.2438 169.045 55.6901 171.056 57.6471 171.476C59.614 171.895 59.8206 170.241 59.8206 170.241L57.0624 169.646Z" fill="white"/>
<path d="M71.6364 164.362C71.6846 165.21 71.0353 165.948 70.1767 165.997C69.3281 166.045 68.5901 165.396 68.5414 164.537C68.4932 163.689 69.1424 162.951 70.0011 162.902C70.8602 162.863 71.5882 163.513 71.6364 164.362Z" fill="white"/>
<path d="M135.21 294.642L87.4185 270.551C86.0265 269.849 86.1192 268.482 87.6257 267.495L114.636 249.786C116.142 248.799 118.483 248.566 119.875 249.268L167.667 273.359C169.059 274.061 168.966 275.429 167.459 276.416L140.449 294.124C138.953 295.111 136.602 295.334 135.21 294.642Z" fill="white"/>
<path opacity="0.5" d="M187.143 314.401L118.214 279.661C116.667 278.877 116.544 276.711 117.993 275.767L179.372 235.535L252.704 272.499C254.251 273.283 254.374 275.449 252.925 276.393L195.67 313.927C193.12 315.585 189.865 315.769 187.143 314.401Z" fill="#173D7A"/>
<path d="M179.213 208.731C178.973 204.498 175.89 202.94 172.345 205.254L111.967 244.759C110.991 245.395 110.253 246.86 110.319 248.028C110.385 249.196 111.231 249.619 112.206 248.982L172.585 209.478C174.188 208.425 175.58 209.127 175.689 211.044L176.075 218.024C177.278 217.875 178.496 217.806 179.725 217.756L179.213 208.731Z" fill="#F16A51"/>
<path d="M112.889 261.534L174.017 235.248C177.571 232.923 180.263 227.582 180.033 223.348L179.725 217.756C178.496 217.806 177.278 217.875 176.075 218.024L176.498 225.662C176.606 227.569 175.391 229.982 173.788 231.034L112.659 257.32C111.684 257.956 110.946 259.42 111.012 260.589C111.068 261.747 111.914 262.18 112.889 261.534Z" fill="#C84128"/>
<path d="M111.536 261.701L189.967 301.32L252.077 259.334L256.748 251.436L256.371 254.162L254.593 247.182L135.523 258.506L114.42 258.342L111.536 261.701Z" fill="#C54E38"/>
<path d="M113.309 248.299L113.82 257.645L189.611 295.932L191.092 286.913L113.309 248.299Z" fill="#FAD0C8"/>
<path d="M255.381 244.122L177.084 204.565L110.989 248.19L110.905 249.176L189.316 288.787L255.381 244.122Z" fill="#F16A51"/>
<path d="M232.488 268.018L249.709 256.433C251.147 255.29 252.204 253.096 252.113 251.309L252.043 249.91C251.979 248.782 251.468 248.07 250.728 247.902L216.752 269.411L189.055 286.488L189.621 295.941L232.488 268.018Z" fill="white"/>
<path d="M191.659 287.202L113.857 247.897L112.207 247.059L110.701 246.293C110.433 246.859 110.277 247.469 110.309 248.018C110.341 248.587 110.564 248.985 110.894 249.157L110.905 249.166L110.915 249.166L189.315 288.777L191.659 287.202Z" fill="#E26750"/>
<path d="M188.988 300.835L189.967 301.32L190.119 301.011L189.504 300.585L188.988 300.835Z" fill="white"/>
<path d="M188.295 288.274L189.305 288.778L189.025 288.263L188.295 288.274Z" fill="white"/>
<path d="M190.378 284.38L250.756 244.875C254.31 242.55 257.393 244.108 257.624 248.342L257.693 249.74C257.933 253.973 255.232 259.315 251.678 261.64L191.299 301.145C190.323 301.781 189.478 301.358 189.412 300.19C189.346 299.022 190.084 297.558 191.059 296.921L251.438 257.417C253.041 256.364 254.257 253.962 254.148 252.045L254.078 250.646C253.97 248.739 252.578 248.037 250.975 249.08L190.596 288.584C189.621 289.221 188.775 288.798 188.709 287.63C188.664 286.48 189.402 285.016 190.378 284.38Z" fill="#F16A51"/>
<path d="M189.422 300.199C189.356 299.031 190.094 297.567 191.07 296.931L251.448 257.426C253.051 256.374 254.267 253.971 254.158 252.054L254.089 250.656C254.018 249.408 253.396 248.672 252.531 248.611C252.831 248.964 253.02 249.474 253.058 250.133L253.127 251.532C253.235 253.439 252.02 255.851 250.417 256.904L190.039 296.408C189.063 297.045 188.325 298.509 188.391 299.677C188.441 300.556 188.938 301.018 189.603 300.91C189.492 300.716 189.438 300.479 189.422 300.199Z" fill="white"/>
<path d="M188.73 287.648C188.664 286.48 189.402 285.016 190.378 284.38L250.756 244.875C252.282 243.877 253.728 243.595 254.89 243.94C253.613 242.97 251.743 243.026 249.725 244.353L189.346 283.857C188.371 284.494 187.633 285.958 187.699 287.126C187.749 288.005 188.246 288.467 188.911 288.359C188.809 288.165 188.746 287.928 188.73 287.648Z" fill="white"/>
<path d="M157.658 250.539L190.976 228.737L221.828 244.323L188.51 266.116L157.658 250.539Z" fill="white"/>
</g>
<defs>
<clipPath id="clip0">
<rect width="330.47" height="339.92" fill="white" transform="translate(0.617798 27.6794) rotate(-3.24817)"/>
</clipPath>
</defs>
</svg>
