<svg width="118" height="212" viewBox="0 0 118 212" fill="none" xmlns="http://www.w3.org/2000/svg">
<g clip-path="url(#clip0)">
<path opacity="0.5" d="M53.4159 209.76L7.22446 182.094C5.53059 181.076 5.7782 179.36 7.76626 178.252L57.6396 150.44C59.6277 149.332 62.6192 149.26 64.3133 150.267L110.505 177.933C112.199 178.95 111.951 180.666 109.963 181.775L60.0895 209.587C58.0913 210.705 55.1097 210.777 53.4159 209.76Z" fill="#173D7A"/>
<path d="M111.852 160.062L62.461 130.475C60.5393 129.324 59.0177 126.299 59.0593 123.709L60.9764 4.42459C61.018 1.83492 62.6068 0.680301 64.5285 1.83133L113.919 31.4188C115.841 32.5699 117.363 35.5947 117.321 38.1844L115.404 157.479C115.363 160.049 113.774 161.213 111.852 160.062Z" fill="url(#paint0_linear)"/>
<path d="M113.92 31.4088L64.5286 1.82133C63.6668 1.30741 62.8775 1.25472 62.2621 1.58488L4.82176 33.506L7.34184 43.4778L56.86 192.103L114.068 160.318C114.078 160.318 114.088 160.308 114.098 160.298L114.199 160.24C114.917 159.801 115.382 158.839 115.404 157.459L117.321 38.1644C117.363 35.5847 115.841 32.5598 113.92 31.4088Z" fill="#396CAA"/>
<path d="M113.92 31.4088L64.5286 1.82133C63.6668 1.30741 62.8775 1.25472 62.2621 1.58488L4.82176 33.506L7.34184 43.4778L20.9568 84.3518L23.6215 85.9448L116.403 34.3491C115.783 33.079 114.9 31.9947 113.92 31.4088Z" fill="#D4ECFF"/>
<path d="M54.4521 191.954L5.06115 162.366C3.13939 161.215 1.6178 158.191 1.65926 155.611L3.57648 36.3163C3.61809 33.7267 5.20685 32.5721 7.12861 33.7231L56.5197 63.3006C58.4414 64.4516 59.963 67.4764 59.9214 70.0661L58.0042 189.361C57.9627 191.94 56.3738 193.105 54.4521 191.954Z" fill="#5793CE"/>
<path d="M51.4278 184.724L8.25793 158.857C6.5739 157.85 5.24617 155.209 5.28249 152.949L7.06311 42.1531C7.09943 39.8934 8.48597 38.8756 10.17 39.8827L53.3401 65.7398C55.0141 66.7468 56.3518 69.3887 56.3155 71.6484L54.535 182.434C54.4984 184.714 53.112 185.722 51.4278 184.724Z" fill="url(#paint1_linear)"/>
<path d="M51.4278 184.724L8.25793 158.857C6.5739 157.85 5.24617 155.209 5.28249 152.949L7.06311 42.1531C7.09943 39.8934 8.48597 38.8756 10.17 39.8827L53.3401 65.7398C55.0141 66.7468 56.3518 69.3887 56.3155 71.6484L54.535 182.434C54.4984 184.714 53.112 185.722 51.4278 184.724Z" fill="url(#paint2_linear)"/>
<path d="M51.4278 184.724L8.25793 158.857C6.5739 157.85 5.24617 155.209 5.28249 152.949L7.06311 42.1531C7.09943 39.8934 8.48597 38.8756 10.17 39.8827L53.3401 65.7398C55.0141 66.7468 56.3518 69.3887 56.3155 71.6484L54.535 182.434C54.4984 184.714 53.112 185.722 51.4278 184.724Z" fill="#173D7A"/>
<path d="M52.8712 183.908L9.69126 158.04C8.01707 157.043 6.67951 154.391 6.71582 152.132L8.49629 41.346C8.50866 40.5761 8.6786 39.9588 8.96596 39.5034C7.86626 39.4757 7.09013 40.4733 7.06297 42.1631L5.28251 152.949C5.24619 155.209 6.57375 157.86 8.25795 158.857L51.428 184.714C52.5376 185.372 53.5112 185.158 54.0652 184.287C53.6953 184.281 53.2873 184.154 52.8712 183.908Z" fill="#396CAA"/>
<path d="M52.2455 133.851L36.1979 124.242L10.1215 138.745L54.8072 165.506L55.2208 139.77C55.2571 137.51 53.9296 134.858 52.2455 133.851Z" fill="#173D7A"/>
<path d="M52.6103 111.154L36.5626 101.545L10.4864 116.038L55.1721 142.799L55.5857 117.062C55.622 114.803 54.2943 112.161 52.6103 111.154Z" fill="#173D7A"/>
<path d="M52.9751 88.4469L36.9275 78.8377L10.8511 93.3406L55.5368 120.102L55.9504 94.3654C55.9867 92.1057 54.6592 89.454 52.9751 88.4469Z" fill="#173D7A"/>
<path d="M53.34 65.7498L37.2924 56.1407L11.2161 70.6335L55.9018 97.395L56.3155 71.6584C56.3518 69.3987 55.024 66.757 53.34 65.7498Z" fill="#173D7A"/>
<path d="M53.34 65.7498L17.8174 44.4662L11.591 47.9266L56.2666 74.698L56.3154 71.6584C56.3517 69.3987 55.024 66.757 53.34 65.7498Z" fill="#173D7A"/>
<path d="M56.2665 74.698L11.5808 47.9365L11.3502 62.2846L56.036 89.0461L56.2665 74.698Z" fill="#5793CE"/>
<path d="M55.9018 97.395L11.2161 70.6335L10.9855 84.9817L55.6712 111.743L55.9018 97.395Z" fill="#5793CE"/>
<path d="M55.5368 120.102L10.8511 93.3406L10.6205 107.689L55.3062 134.45L55.5368 120.102Z" fill="#5793CE"/>
<path d="M55.1721 142.799L10.4863 116.038L10.2557 130.386L54.9415 157.147L55.1721 142.799Z" fill="#5793CE"/>
<path d="M54.8072 165.506L10.1215 138.745L9.89087 153.093L54.5766 179.854L54.8072 165.506Z" fill="#5793CE"/>
<path d="M52.1387 83.8628L18.4882 63.7095C17.5372 63.1441 16.7812 61.6418 16.8018 60.362L16.8635 56.5225C16.8841 55.2426 17.6734 54.6652 18.6243 55.2406L52.2748 75.3939C53.2258 75.9593 53.9818 77.4616 53.9612 78.7415L53.8995 82.581C53.879 83.8608 53.0896 84.4382 52.1387 83.8628Z" fill="#173D7A"/>
<path opacity="0.3" d="M20.2198 62.9972C19.2688 62.4319 18.5128 60.9295 18.5334 59.6497L18.5951 55.8102C18.5983 55.6102 18.6312 55.4307 18.6639 55.2612L18.6243 55.2406C17.6732 54.6752 16.884 55.2426 16.8634 56.5225L16.8017 60.362C16.7812 61.6418 17.5373 63.1341 18.4882 63.7095L52.1386 83.8628C52.941 84.3458 53.6165 84.0066 53.8206 83.1298L20.2198 62.9972Z" fill="#06033E"/>
<path d="M41.6493 73.1629L21.4016 61.036C21.0647 60.8405 20.8033 60.3063 20.8105 59.8563C20.8177 59.4064 21.0911 59.2007 21.4278 59.4062L41.6755 71.5331C42.0124 71.7285 42.2739 72.2628 42.2667 72.7128C42.2594 73.1627 41.9861 73.3683 41.6493 73.1629Z" fill="white"/>
<path d="M51.776 106.43L18.1257 86.2666C17.1746 85.7012 16.4187 84.1989 16.4392 82.919L16.5009 79.0795C16.5215 77.7997 17.3109 77.2223 18.2618 77.7977L51.9123 97.951C52.8633 98.5164 53.6193 100.019 53.5987 101.299L53.537 105.138C53.5163 106.428 52.727 106.995 51.776 106.43Z" fill="#173D7A"/>
<path opacity="0.3" d="M19.8571 85.5643C18.9061 84.999 18.1501 83.4966 18.1707 82.2168L18.2324 78.3773C18.2356 78.1773 18.2685 77.9978 18.3012 77.8283L18.2617 77.7977C17.3107 77.2323 16.5215 77.7997 16.5009 79.0795L16.4392 82.919C16.4186 84.1989 17.1747 85.6912 18.1256 86.2666L51.7761 106.42C52.5784 106.903 53.254 106.564 53.4581 105.687L19.8571 85.5643Z" fill="#06033E"/>
<path d="M41.2866 95.73L21.0388 83.603C20.7019 83.4076 20.4405 82.8733 20.4477 82.4234C20.4549 81.9735 20.7283 81.7678 21.065 81.9733L41.3127 94.1002C41.6496 94.2956 41.9111 94.8299 41.9039 95.2798C41.8968 95.7198 41.6235 95.9254 41.2866 95.73Z" fill="white"/>
<path d="M51.4099 129.207L17.7594 109.054C16.8084 108.488 16.0525 106.986 16.073 105.706L16.1347 101.867C16.1553 100.587 16.9447 100.009 17.8956 100.585L51.546 120.738C52.4971 121.303 53.253 122.806 53.2325 124.086L53.1708 127.925C53.1504 129.195 52.361 129.772 51.4099 129.207Z" fill="#173D7A"/>
<path opacity="0.3" d="M19.4913 108.331C18.5402 107.766 17.7843 106.264 17.8048 104.984L17.8665 101.144C17.8698 100.944 17.9027 100.765 17.9354 100.595L17.8959 100.565C16.9448 99.9994 16.1556 100.567 16.135 101.847L16.0733 105.686C16.0528 106.966 16.8089 108.458 17.7598 109.034L51.4103 129.187C52.2126 129.67 52.8881 129.331 53.0923 128.454L19.4913 108.331Z" fill="#06033E"/>
<path d="M40.9207 118.497L20.673 106.37C20.3361 106.175 20.0746 105.64 20.0818 105.19C20.0891 104.741 20.3624 104.535 20.6992 104.74L40.9469 116.867C41.2838 117.063 41.5453 117.597 41.538 118.047C41.5308 118.497 41.2574 118.702 40.9207 118.497Z" fill="#D4ECFF"/>
<path d="M51.0407 152.184L17.3902 132.031C16.4391 131.465 15.6832 129.963 15.7038 128.683L15.7655 124.844C15.786 123.564 16.5754 122.986 17.5263 123.562L51.1768 143.715C52.1278 144.28 52.8838 145.783 52.8632 147.063L52.8015 150.902C52.7809 152.182 51.9917 152.749 51.0407 152.184Z" fill="#173D7A"/>
<path opacity="0.3" d="M19.1218 131.318C18.1708 130.753 17.4148 129.251 17.4354 127.971L17.4971 124.131C17.5003 123.931 17.5332 123.752 17.5659 123.582L17.5262 123.562C16.5752 122.996 15.786 123.564 15.7654 124.844L15.7037 128.683C15.6831 129.963 16.4393 131.455 17.3901 132.031L51.0406 152.184C51.843 152.667 52.5185 152.328 52.7226 151.451L19.1218 131.318Z" fill="#06033E"/>
<path d="M40.5513 141.484L20.3036 129.357C19.9667 129.162 19.7052 128.627 19.7125 128.177C19.7197 127.728 19.993 127.522 20.3298 127.727L40.5775 139.854C40.9144 140.05 41.1759 140.584 41.1686 141.034C41.1614 141.484 40.8882 141.679 40.5513 141.484Z" fill="#F16A51"/>
<path d="M50.6786 174.711L17.0281 154.558C16.0771 153.992 15.3211 152.49 15.3417 151.21L15.4034 147.371C15.424 146.091 16.2134 145.513 17.1642 146.089L50.8147 166.242C51.7658 166.808 52.5217 168.31 52.5012 169.59L52.4394 173.429C52.4189 174.709 51.6297 175.276 50.6786 174.711Z" fill="#173D7A"/>
<path opacity="0.3" d="M18.7597 153.846C17.8087 153.28 17.0527 151.778 17.0733 150.498L17.135 146.658C17.1382 146.458 17.1711 146.279 17.2039 146.109L17.1642 146.089C16.2131 145.523 15.4239 146.091 15.4034 147.371L15.3416 151.21C15.3211 152.49 16.0772 153.982 17.0281 154.558L50.6786 174.711C51.4809 175.194 52.1564 174.855 52.3606 173.978L18.7597 153.846Z" fill="#06033E"/>
<path d="M40.1893 164.011L19.9415 151.884C19.6046 151.689 19.3432 151.155 19.3504 150.705C19.3576 150.255 19.631 150.049 19.9677 150.254L40.2155 162.381C40.5524 162.577 40.8138 163.111 40.8066 163.561C40.7993 164.011 40.5262 164.207 40.1893 164.011Z" fill="#D4ECFF"/>
<path opacity="0.5" d="M11.5808 47.9365L15.1074 50.0434L14.8768 64.3915L11.3502 62.2846L11.5808 47.9365Z" fill="#173D7A"/>
<path opacity="0.5" d="M11.2159 70.6335L14.7425 72.7405L14.5119 87.0886L10.9853 84.9817L11.2159 70.6335Z" fill="#173D7A"/>
<path opacity="0.5" d="M10.8511 93.3406L14.3777 95.4475L14.1471 109.796L10.6205 107.689L10.8511 93.3406Z" fill="#173D7A"/>
<path opacity="0.5" d="M10.4863 116.038L14.0129 118.145L13.7823 132.493L10.2557 130.386L10.4863 116.038Z" fill="#173D7A"/>
<path opacity="0.5" d="M10.1213 138.745L13.6479 140.852L13.4173 155.2L9.89075 153.093L10.1213 138.745Z" fill="#173D7A"/>
<path d="M45.6559 74.6475C45.6485 75.1074 45.3257 75.2822 44.9292 75.0558C44.533 74.8194 44.222 74.2544 44.2294 73.7944C44.2368 73.3345 44.5597 73.1597 44.9561 73.3861C45.3523 73.6225 45.6633 74.1875 45.6559 74.6475Z" fill="#D4ECFF"/>
<path d="M48.6773 76.4563C48.6699 76.9162 48.347 77.091 47.9506 76.8646C47.5544 76.6282 47.2434 76.0632 47.2508 75.6032C47.2582 75.1433 47.581 74.9684 47.9774 75.1948C48.3737 75.4312 48.6847 75.9963 48.6773 76.4563Z" fill="#F16A51"/>
<path d="M51.6986 78.265C51.6912 78.725 51.3684 78.8998 50.972 78.6734C50.5757 78.437 50.2648 77.8719 50.2721 77.412C50.2795 76.9521 50.6024 76.7772 50.9988 77.0036C51.3851 77.2399 51.706 77.8051 51.6986 78.265Z" fill="#D4ECFF"/>
<path d="M45.2913 97.3345C45.2839 97.7945 44.961 97.9693 44.5646 97.7429C44.1684 97.5065 43.8574 96.9414 43.8648 96.4815C43.8722 96.0216 44.195 95.8467 44.5915 96.0731C44.9875 96.3195 45.2987 96.8746 45.2913 97.3345Z" fill="#F16A51"/>
<path d="M48.3126 99.1433C48.3052 99.6033 47.9824 99.7781 47.586 99.5517C47.1897 99.3153 46.8788 98.7502 46.8862 98.2903C46.8936 97.8303 47.2164 97.6555 47.6128 97.8819C48.0089 98.1283 48.32 98.6834 48.3126 99.1433Z" fill="#D4ECFF"/>
<path d="M51.334 100.952C51.3266 101.412 51.0038 101.587 50.6073 101.36C50.2111 101.124 49.9001 100.559 49.9075 100.099C49.9149 99.6391 50.2378 99.4643 50.6342 99.6907C51.0203 99.9369 51.3414 100.492 51.334 100.952Z" fill="white"/>
<path d="M44.9238 120.202C44.9164 120.662 44.5936 120.836 44.1972 120.61C43.8009 120.374 43.49 119.808 43.4974 119.349C43.5048 118.889 43.8276 118.714 44.224 118.94C44.6203 119.177 44.9312 119.742 44.9238 120.202Z" fill="white"/>
<path d="M47.9452 122.01C47.9378 122.47 47.615 122.645 47.2185 122.419C46.8223 122.182 46.5113 121.617 46.5187 121.157C46.5261 120.697 46.849 120.523 47.2454 120.749C47.6416 120.985 47.9526 121.55 47.9452 122.01Z" fill="#F16A51"/>
<path d="M50.9664 123.819C50.9591 124.279 50.6362 124.454 50.2398 124.228C49.8435 123.991 49.5326 123.426 49.54 122.966C49.5474 122.506 49.8702 122.331 50.2666 122.558C50.6529 122.794 50.9738 123.359 50.9664 123.819Z" fill="white"/>
<path d="M44.5618 142.729C44.5544 143.189 44.2315 143.363 43.8351 143.137C43.4389 142.901 43.1279 142.336 43.1353 141.876C43.1427 141.416 43.4655 141.241 43.862 141.467C44.2582 141.704 44.5692 142.269 44.5618 142.729Z" fill="white"/>
<path d="M47.5831 144.537C47.5758 144.997 47.2529 145.172 46.8565 144.946C46.4602 144.709 46.1493 144.144 46.1567 143.684C46.1641 143.224 46.4869 143.05 46.8833 143.276C47.2796 143.512 47.5905 144.078 47.5831 144.537Z" fill="#D4ECFF"/>
<path d="M50.6044 146.346C50.597 146.806 50.2741 146.981 49.8777 146.755C49.4815 146.518 49.1705 145.953 49.1779 145.493C49.1853 145.033 49.5082 144.858 49.9046 145.085C50.2908 145.321 50.6118 145.886 50.6044 146.346Z" fill="#D4ECFF"/>
<path d="M44.1947 165.566C44.1873 166.026 43.8645 166.201 43.4681 165.974C43.0718 165.738 42.7608 165.173 42.7682 164.713C42.7756 164.253 43.0985 164.078 43.4949 164.304C43.8911 164.541 44.2021 165.106 44.1947 165.566Z" fill="white"/>
<path d="M47.2161 167.375C47.2087 167.834 46.8858 168.009 46.4894 167.783C46.0932 167.546 45.7822 166.981 45.7896 166.521C45.797 166.062 46.1198 165.887 46.5163 166.113C46.9125 166.349 47.2235 166.915 47.2161 167.375Z" fill="#F16A51"/>
<path d="M50.2374 169.183C50.2301 169.643 49.9072 169.818 49.5108 169.592C49.1145 169.355 48.8036 168.79 48.811 168.33C48.8184 167.87 49.1412 167.695 49.5376 167.922C49.9239 168.158 50.2448 168.723 50.2374 169.183Z" fill="#D4ECFF"/>
<path d="M65.7298 176.003L67.3623 74.4262L67.5742 74.3096L110.423 50.4851L108.79 152.062L108.578 152.179L65.7298 176.003ZM68.1945 74.9197L66.5932 174.557L107.958 151.559L109.559 51.9214L68.1945 74.9197Z" fill="#173D7A"/>
<path d="M98.6597 96.0019L79.4455 106.685C78.1538 107.404 77.1266 106.597 77.1539 104.898L77.3235 94.3489C77.3509 92.6391 78.4226 90.6761 79.7142 89.9667L98.9283 79.2841C100.22 78.5648 101.247 79.3714 101.22 81.0712L101.05 91.6298C101.013 93.3194 99.9514 95.2826 98.6597 96.0019Z" fill="#173D7A"/>
<path d="M99.3916 79.0815C99.4968 79.3833 99.5512 79.7342 99.5446 80.1441L99.3749 90.7028C99.3474 92.4125 98.2757 94.3756 96.9841 95.0849L77.77 105.768C77.6086 105.855 77.4575 105.923 77.3068 105.96C77.6319 106.895 78.4566 107.229 79.4355 106.684L98.6496 96.0018C99.9414 95.2824 101.013 93.3194 101.04 91.6196L101.21 81.061C101.234 79.5712 100.457 78.7686 99.3916 79.0815Z" fill="#5793CE"/>
<path d="M95.2821 89.5969C95.6353 89.4025 95.9227 89.5671 95.9161 89.9771L95.8775 92.3768C95.8709 92.7867 95.5731 93.272 95.2199 93.4663C94.8667 93.6607 94.5793 93.4961 94.5859 93.0861L94.6245 90.6864C94.6311 90.2765 94.9289 89.7912 95.2821 89.5969Z" fill="white"/>
<path d="M92.5224 91.4227C92.8756 91.2284 93.163 91.393 93.1564 91.803L93.1227 93.9027C93.1161 94.3126 92.8182 94.7979 92.4651 94.9923C92.1119 95.1866 91.8245 95.022 91.8311 94.612L91.8649 92.5123C91.8713 92.1124 92.1691 91.6271 92.5224 91.4227Z" fill="#D4ECFF"/>
<path d="M89.8052 90.609C90.1583 90.4146 90.4457 90.5793 90.4391 90.9892L90.3676 95.4386C90.361 95.8486 90.0632 96.3339 89.71 96.5282C89.3569 96.7226 89.0695 96.5579 89.0761 96.148L89.1474 91.7085C89.154 91.2986 89.4518 90.8133 89.8052 90.609Z" fill="#F16A51"/>
<path d="M87.0914 89.5752C87.4446 89.3809 87.732 89.5455 87.7254 89.9555L87.6126 96.9746C87.606 97.3845 87.3082 97.8698 86.955 98.0641C86.6018 98.2585 86.3144 98.0938 86.321 97.6839L86.4338 90.6648C86.4403 90.2649 86.7281 89.7794 87.0914 89.5752Z" fill="#D4ECFF"/>
<path d="M84.3245 91.8511C84.6776 91.6567 84.965 91.8213 84.9584 92.2313L84.8575 98.5105C84.8509 98.9204 84.5531 99.4057 84.1999 99.6001C83.8467 99.7944 83.5594 99.6298 83.5659 99.2198L83.6669 92.9406C83.6734 92.5307 83.9613 92.0453 84.3245 91.8511Z" fill="#D4ECFF"/>
<path d="M81.5135 96.2465C81.8667 96.0521 82.1541 96.2167 82.1475 96.6267L82.0927 100.036C82.0861 100.446 81.7883 100.931 81.4351 101.126C81.082 101.32 80.7946 101.156 80.8011 100.746L80.8559 97.336C80.8724 96.9362 81.1602 96.4508 81.5135 96.2465Z" fill="white"/>
<path d="M94.6719 88.3669C94.6655 88.7668 94.9429 88.9313 95.296 88.737C95.6492 88.5426 95.937 88.0572 95.9435 87.6572C95.9499 87.2573 95.6725 87.0928 95.3193 87.2871C94.966 87.4915 94.6783 87.9669 94.6719 88.3669Z" fill="#F16A51"/>
<path d="M94.7082 86.1072C94.7017 86.5071 94.9791 86.6716 95.3323 86.4772C95.6855 86.2829 95.9733 85.7975 95.9797 85.3975C95.9861 84.9976 95.7088 84.8331 95.3556 85.0274C95.0023 85.2318 94.7146 85.7072 94.7082 86.1072Z" fill="white"/>
</g>
<defs>
<linearGradient id="paint0_linear" x1="87.1543" y1="145.268" x2="144.415" y2="49.6739" gradientUnits="userSpaceOnUse">
<stop stop-color="#2D0979"/>
<stop offset="1" stop-color="#5B04F7"/>
</linearGradient>
<linearGradient id="paint1_linear" x1="4.13745" y1="104.503" x2="49.5854" y2="98.215" gradientUnits="userSpaceOnUse">
<stop stop-color="#3919BB"/>
<stop offset="1" stop-color="#6507FA"/>
</linearGradient>
<linearGradient id="paint2_linear" x1="4.13745" y1="104.503" x2="49.5854" y2="98.215" gradientUnits="userSpaceOnUse">
<stop stop-color="#3919BB"/>
<stop offset="1" stop-color="#6507FA"/>
</linearGradient>
<clipPath id="clip0">
<rect width="113.76" height="209.18" fill="white" transform="translate(4.1532 0.430969) rotate(0.920736)"/>
</clipPath>
</defs>
</svg>
