<svg width="82" height="105" viewBox="0 0 82 105" fill="none" xmlns="http://www.w3.org/2000/svg">
<g clip-path="url(#clip0)">
<path d="M75.9001 58.5923L35.558 39.9775C34.7611 39.6085 33.9925 39.6587 33.3626 40.0175L33.3707 39.9967L28.9964 42.5656C28.9964 42.5656 30.7639 43.0065 31.8025 43.2731L28.8263 71.682C28.5857 73.9935 29.8427 76.5396 31.6349 77.3599L70.1948 95.1535L69.847 98.489L74.2602 95.9065L74.2394 95.8984C74.9906 95.4381 75.5307 94.5351 75.6577 93.2884L78.6996 64.281C78.9493 61.9587 77.6932 59.4225 75.9001 58.5923Z" fill="#8D46C1"/>
<path d="M67.5248 98.5707L27.1827 79.956C25.3897 79.1257 24.1336 76.5896 24.3741 74.2781L27.4161 45.2707C27.6567 42.9592 29.3038 41.7542 31.0968 42.5845L71.4389 61.1992C73.232 62.0294 74.4881 64.5656 74.2475 66.8771L71.2055 95.8845C70.9749 98.1951 69.3178 99.4009 67.5248 98.5707Z" fill="#B461F2"/>
<path d="M72.2933 60.7697L31.9413 42.1558C30.9977 41.7199 30.1069 41.8616 29.4236 42.4061C29.9332 42.2691 30.5091 42.3068 31.0959 42.5745L71.438 61.1893C73.231 62.0195 74.488 64.5656 74.2465 66.8672L71.2046 95.8745C71.0838 96.9701 70.6488 97.8132 70.0316 98.3114C71.0807 98.0348 71.8806 97.0077 72.04 95.4568L75.0928 66.4584C75.3434 64.146 74.0864 61.5999 72.2933 60.7697Z" fill="white"/>
<path d="M42.5971 68.6458C42.4196 70.3289 41.0565 71.1263 39.5569 70.4299C38.0573 69.7336 36.978 67.8138 37.1555 66.1307C37.333 64.4475 38.6961 63.6501 40.1957 64.3465C41.6953 65.0429 42.7746 66.9626 42.5971 68.6458Z" fill="white"/>
<path d="M50.8377 72.4514C50.6602 74.1345 49.2972 74.9319 47.7975 74.2355C46.2979 73.5392 45.2187 71.6194 45.3962 69.9363C45.5737 68.2531 46.9368 67.4557 48.4364 68.1521C49.946 68.8476 51.0153 70.7682 50.8377 72.4514Z" fill="white"/>
<path d="M59.0883 76.2561C58.9108 77.9392 57.5478 78.7366 56.0481 78.0403C54.5485 77.3439 53.4693 75.4242 53.6468 73.741C53.8243 72.0579 55.1874 71.2605 56.687 71.9568C58.1866 72.6532 59.2659 74.5729 59.0883 76.2561Z" fill="white"/>
<path d="M55.4273 24.3438L15.0752 5.72995C14.2783 5.36096 13.5197 5.41023 12.8897 5.76907L12.8979 5.74824L8.52265 8.30717C8.52265 8.30717 10.2901 8.7481 11.3287 9.01466L8.35255 37.4236C8.11198 39.735 9.36899 42.2812 11.1611 43.1015L49.7211 60.895L49.3733 64.2305L53.7865 61.6481L53.7657 61.6399C54.5169 61.1796 55.0569 60.2767 55.184 59.03L58.2259 30.0226C58.4773 27.7201 57.2203 25.174 55.4273 24.3438Z" fill="#5793CE"/>
<path d="M47.052 64.3222L6.70985 45.7075C4.91683 44.8773 3.66073 42.3411 3.9013 40.0296L6.94325 11.0222C7.18382 8.71072 8.83096 7.50577 10.624 8.33599L50.9661 26.9507C52.7591 27.781 54.0152 30.3171 53.7746 32.6286L50.7327 61.636C50.4921 63.9475 48.845 65.1525 47.052 64.3222Z" fill="#D4ECFF"/>
<path d="M51.8114 26.5321L11.4693 7.9173C10.5257 7.48139 9.63494 7.62307 8.95167 8.16754C9.46132 8.03057 10.0371 8.06831 10.6239 8.336L50.9661 26.9508C52.7591 27.781 54.0161 30.3271 53.7746 32.6287L50.7327 61.636C50.6218 62.7307 50.1768 63.5747 49.5596 64.0729C50.6088 63.7963 51.4086 62.7692 51.5681 61.2182L54.61 32.2109C54.8606 29.8985 53.6036 27.3523 51.8114 26.5321Z" fill="white"/>
<path d="M22.1142 34.3982C21.9367 36.0814 20.5736 36.8788 19.074 36.1824C17.5744 35.486 16.4952 33.5663 16.6727 31.8831C16.8502 30.2 18.2133 29.4026 19.7129 30.099C21.2125 30.7953 22.2927 32.725 22.1142 34.3982Z" fill="white"/>
<path d="M30.3648 38.2029C30.1873 39.8861 28.8243 40.6835 27.3246 39.9871C25.825 39.2907 24.7458 37.371 24.9233 35.6879C25.1008 34.0047 26.4639 33.2073 27.9635 33.9037C29.4631 34.6001 30.5433 36.5297 30.3648 38.2029Z" fill="white"/>
<path d="M38.6055 42.0085C38.428 43.6917 37.0649 44.4891 35.5653 43.7927C34.0657 43.0963 32.9864 41.1766 33.1639 39.4935C33.3415 37.8103 34.7045 37.0129 36.2042 37.7093C37.7038 38.4057 38.7839 40.3353 38.6055 42.0085Z" fill="white"/>
</g>
<defs>
<clipPath id="clip0">
<rect width="72.51" height="97.96" fill="white" transform="translate(0.742065 6.67871) rotate(-5.22315)"/>
</clipPath>
</defs>
</svg>
