<svg width="51" height="51" viewBox="0 0 51 51" fill="none" xmlns="http://www.w3.org/2000/svg">
<g clip-path="url(#clip0)">
<path d="M13.6689 27.9302L1.3866 22.556C0.00242376 21.9509 0.0960762 19.9563 1.53123 19.4842L48.2362 4.08738C49.4581 3.68494 50.6488 4.77576 50.3545 6.02888L41.0214 45.7116C40.7427 46.8971 39.318 47.3806 38.3759 46.6091L27.4091 37.6357L13.6689 27.9302Z" fill="#EBF0FA"/>
<path d="M39.1171 12.6568L13.6689 27.9304L16.7827 42.3737C17.062 43.6695 18.5894 44.2406 19.6503 43.446L27.4092 37.6358L21.0252 32.4113L39.9212 13.6912C40.4752 13.1423 39.7859 12.2553 39.1171 12.6568Z" fill="#BEC3D2"/>
<path d="M17.8094 43.6462C18.3815 43.9048 19.0826 43.871 19.6503 43.4458L27.4092 37.6355L24.2172 35.0233L21.0252 32.4111L17.8094 43.6462Z" fill="#AFB4C8"/>
</g>
<defs>
<clipPath id="clip0">
<rect width="50" height="50" fill="white" transform="translate(0.39978 0.492676)"/>
</clipPath>
</defs>
</svg>
