<svg width="50" height="51" viewBox="0 0 50 51" fill="none" xmlns="http://www.w3.org/2000/svg">
<g clip-path="url(#clip0)">
<path d="M24.465 39.6367H27.4527C27.4527 39.6367 28.3559 39.5366 28.8153 39.0397C29.2404 38.5835 29.2247 37.7271 29.2247 37.7271C29.2247 37.7271 29.1653 33.7175 31.028 33.1268C32.8625 32.5455 35.2189 37.0021 37.716 38.7178C39.6036 40.0148 41.0381 39.7304 41.0381 39.7304L47.7167 39.6367C47.7167 39.6367 51.2107 39.421 49.5544 36.6739C49.42 36.4489 48.5887 34.6425 44.5884 30.9298C40.4006 27.042 40.9631 27.6733 46.0072 20.9509C49.0793 16.8568 50.3075 14.3566 49.9231 13.2878C49.5575 12.269 47.2979 12.5378 47.2979 12.5378L39.7849 12.5815C39.7849 12.5815 39.2286 12.5065 38.8129 12.7534C38.4098 12.9972 38.1504 13.5597 38.1504 13.5597C38.1504 13.5597 36.9597 16.7287 35.3721 19.4227C32.0249 25.1074 30.6842 25.4075 30.1373 25.0543C28.8653 24.2324 29.1841 21.7478 29.1841 19.9852C29.1841 14.4754 30.0185 12.1784 27.5559 11.5846C26.737 11.3877 26.137 11.2564 24.0462 11.2345C21.3648 11.2064 19.0927 11.2439 17.8083 11.8721C16.9519 12.2909 16.2925 13.2253 16.6957 13.2784C17.1926 13.3441 18.3177 13.5816 18.9146 14.3942C19.6865 15.4411 19.6584 17.7975 19.6584 17.7975C19.6584 17.7975 20.1022 24.2824 18.6239 25.0887C17.6082 25.6419 16.2175 24.5137 13.2329 19.3539C11.7047 16.7131 10.5483 13.791 10.5483 13.791C10.5483 13.791 10.3264 13.2472 9.92954 12.9565C9.44826 12.6034 8.77321 12.4909 8.77321 12.4909L1.62893 12.5346C1.62893 12.5346 0.556974 12.5659 0.163195 13.0316C-0.186831 13.4472 0.135067 14.3035 0.135067 14.3035C0.135067 14.3035 5.72923 27.3889 12.061 33.9862C17.8708 40.0336 24.465 39.6367 24.465 39.6367Z" fill="#1E88E5"/>
</g>
<defs>
<clipPath id="clip0">
<rect width="50" height="50" fill="white" transform="translate(-1.52588e-05 0.492676)"/>
</clipPath>
</defs>
</svg>
